<svg width="203" height="61" viewBox="0 0 203 61" fill="none" xmlns="http://www.w3.org/2000/svg">
<path d="M80.6871 14.5744H82.4931V27.477H80.6871V21.519H74.3754V27.477H72.5695V14.5744H74.3754V19.9551H80.6871V14.5744ZM92.1852 27.1977C91.788 27.297 91.2605 27.4025 90.6026 27.5142C89.9572 27.6259 89.2062 27.6818 88.3498 27.6818C87.605 27.6818 86.9782 27.5763 86.4693 27.3652C85.9604 27.1418 85.5508 26.8315 85.2405 26.4343C84.9302 26.0371 84.7068 25.5717 84.5702 25.0379C84.4337 24.4918 84.3654 23.8898 84.3654 23.2319V17.7954H86.0969V22.8596C86.0969 24.0387 86.2831 24.8828 86.6555 25.3917C87.0279 25.9006 87.6547 26.155 88.536 26.155C88.7222 26.155 88.9145 26.1488 89.1131 26.1364C89.3117 26.124 89.4979 26.1116 89.6717 26.0992C89.8455 26.0744 90.0006 26.0557 90.1372 26.0433C90.2861 26.0185 90.3916 25.9937 90.4537 25.9689V17.7954H92.1852V27.1977ZM94.0601 18.0746C94.4573 17.9753 94.9787 17.8698 95.6241 17.7581C96.2819 17.6464 97.0391 17.5905 97.8955 17.5905C98.5162 17.5905 99.0375 17.6774 99.4595 17.8512C99.8815 18.0126 100.235 18.2546 100.521 18.5773C100.608 18.5153 100.744 18.4284 100.93 18.3167C101.117 18.205 101.346 18.0995 101.619 18.0002C101.892 17.8884 102.196 17.7954 102.532 17.7209C102.867 17.634 103.227 17.5905 103.611 17.5905C104.356 17.5905 104.964 17.7023 105.436 17.9257C105.908 18.1367 106.274 18.4408 106.535 18.838C106.808 19.2352 106.988 19.7068 107.074 20.253C107.174 20.7991 107.223 21.3949 107.223 22.0404V27.477H105.492V22.4127C105.492 21.8418 105.461 21.3515 105.399 20.9419C105.349 20.5323 105.244 20.1909 105.082 19.9179C104.933 19.6448 104.722 19.4462 104.449 19.3221C104.189 19.1855 103.847 19.1173 103.425 19.1173C102.842 19.1173 102.358 19.1979 101.973 19.3593C101.601 19.5083 101.346 19.6448 101.21 19.7689C101.309 20.0916 101.383 20.4454 101.433 20.8302C101.483 21.2149 101.508 21.6183 101.508 22.0404V27.477H99.776V22.4127C99.776 21.8418 99.745 21.3515 99.6829 20.9419C99.6209 20.5323 99.5091 20.1909 99.3478 19.9179C99.1988 19.6448 98.9878 19.4462 98.7148 19.3221C98.4541 19.1855 98.119 19.1173 97.7094 19.1173C97.5356 19.1173 97.3494 19.1235 97.1508 19.1359C96.9522 19.1483 96.7598 19.1669 96.5736 19.1917C96.3999 19.2041 96.2385 19.2228 96.0896 19.2476C95.9406 19.2724 95.8413 19.291 95.7917 19.3034V27.477H94.0601V18.0746ZM112.266 26.2295C112.675 26.2295 113.035 26.2233 113.345 26.2109C113.668 26.1861 113.935 26.1488 114.146 26.0992V23.2133C114.022 23.1513 113.817 23.1016 113.532 23.0644C113.259 23.0147 112.923 22.9899 112.526 22.9899C112.266 22.9899 111.986 23.0085 111.688 23.0458C111.403 23.083 111.136 23.1637 110.888 23.2878C110.652 23.3995 110.453 23.5609 110.292 23.7719C110.131 23.9705 110.05 24.2373 110.05 24.5725C110.05 25.1931 110.249 25.6275 110.646 25.8758C111.043 26.1116 111.583 26.2295 112.266 26.2295ZM112.117 17.5533C112.812 17.5533 113.395 17.6464 113.867 17.8326C114.351 18.0064 114.736 18.2608 115.021 18.5959C115.319 18.9187 115.53 19.3097 115.654 19.7689C115.778 20.2158 115.84 20.7122 115.84 21.2584V27.3094C115.691 27.3342 115.48 27.3715 115.207 27.4211C114.947 27.4583 114.649 27.4956 114.314 27.5328C113.978 27.5701 113.612 27.6011 113.215 27.6259C112.83 27.6631 112.446 27.6818 112.061 27.6818C111.515 27.6818 111.012 27.6259 110.553 27.5142C110.093 27.4025 109.696 27.2287 109.361 26.9929C109.026 26.7446 108.765 26.4219 108.579 26.0247C108.393 25.6275 108.3 25.1496 108.3 24.5911C108.3 24.0574 108.405 23.5981 108.616 23.2133C108.84 22.8285 109.138 22.5182 109.51 22.2824C109.882 22.0466 110.317 21.8728 110.813 21.7611C111.31 21.6494 111.831 21.5935 112.377 21.5935C112.551 21.5935 112.731 21.6059 112.917 21.6308C113.103 21.6432 113.277 21.668 113.438 21.7052C113.612 21.7301 113.761 21.7549 113.885 21.7797C114.009 21.8045 114.096 21.8231 114.146 21.8356V21.3515C114.146 21.066 114.115 20.7867 114.053 20.5136C113.991 20.2282 113.879 19.9799 113.718 19.7689C113.556 19.5455 113.333 19.3717 113.048 19.2476C112.774 19.1111 112.414 19.0428 111.968 19.0428C111.397 19.0428 110.894 19.0862 110.46 19.1731C110.038 19.2476 109.721 19.3283 109.51 19.4152L109.305 17.9815C109.529 17.8822 109.901 17.7891 110.422 17.7023C110.944 17.603 111.508 17.5533 112.117 17.5533ZM117.608 18.0746C118.005 17.9753 118.533 17.8698 119.191 17.7581C119.848 17.6464 120.606 17.5905 121.462 17.5905C122.232 17.5905 122.871 17.7023 123.38 17.9257C123.889 18.1367 124.292 18.4408 124.59 18.838C124.9 19.2228 125.117 19.6882 125.242 20.2344C125.366 20.7805 125.428 21.3825 125.428 22.0404V27.477H123.696V22.4127C123.696 21.8169 123.653 21.308 123.566 20.886C123.491 20.464 123.361 20.1227 123.175 19.862C122.989 19.6013 122.741 19.4152 122.43 19.3034C122.12 19.1793 121.735 19.1173 121.276 19.1173C121.09 19.1173 120.897 19.1235 120.699 19.1359C120.5 19.1483 120.308 19.1669 120.122 19.1917C119.948 19.2041 119.786 19.2228 119.637 19.2476C119.501 19.2724 119.402 19.291 119.34 19.3034V27.477H117.608V18.0746ZM136.815 22.0776C137.014 22.3258 137.262 22.6548 137.56 23.0644C137.871 23.4616 138.187 23.9084 138.51 24.4049C138.832 24.889 139.149 25.3979 139.459 25.9316C139.782 26.4654 140.055 26.9805 140.279 27.477H138.305C138.057 27.0053 137.784 26.5274 137.486 26.0433C137.2 25.5593 136.909 25.1 136.611 24.6656C136.313 24.2187 136.015 23.8029 135.717 23.4181C135.432 23.0333 135.171 22.6982 134.935 22.4127C134.774 22.4251 134.606 22.4314 134.432 22.4314C134.271 22.4314 134.103 22.4314 133.93 22.4314H132.31V27.477H130.504V14.7605C131.013 14.6364 131.577 14.5557 132.198 14.5185C132.831 14.4689 133.408 14.444 133.93 14.444C135.742 14.444 137.12 14.7854 138.063 15.468C139.019 16.1507 139.497 17.1685 139.497 18.5215C139.497 19.3779 139.267 20.1102 138.808 20.7185C138.361 21.3267 137.697 21.7797 136.815 22.0776ZM134.079 16.0266C133.309 16.0266 132.719 16.0452 132.31 16.0825V20.9419H133.594C134.215 20.9419 134.774 20.9108 135.27 20.8488C135.767 20.7867 136.182 20.6688 136.518 20.495C136.865 20.3213 137.132 20.0792 137.318 19.7689C137.504 19.4462 137.597 19.0242 137.597 18.5029C137.597 18.0188 137.504 17.6154 137.318 17.2927C137.132 16.9699 136.878 16.7155 136.555 16.5293C136.245 16.3431 135.872 16.2128 135.438 16.1383C135.016 16.0638 134.563 16.0266 134.079 16.0266ZM140.453 22.6548C140.453 21.7983 140.577 21.0536 140.826 20.4206C141.074 19.7751 141.403 19.2414 141.813 18.8194C142.222 18.3973 142.694 18.0808 143.228 17.8698C143.761 17.6588 144.307 17.5533 144.866 17.5533C146.169 17.5533 147.168 17.9629 147.864 18.7821C148.559 19.5889 148.906 20.824 148.906 22.4872C148.906 22.5617 148.906 22.661 148.906 22.7851C148.906 22.8968 148.9 23.0023 148.888 23.1016H142.259C142.334 24.107 142.626 24.8704 143.134 25.3917C143.643 25.913 144.438 26.1737 145.518 26.1737C146.126 26.1737 146.635 26.124 147.044 26.0247C147.466 25.913 147.783 25.8075 147.994 25.7082L148.236 27.1604C148.025 27.2722 147.653 27.3901 147.119 27.5142C146.597 27.6383 146.002 27.7004 145.331 27.7004C144.487 27.7004 143.755 27.5763 143.134 27.328C142.526 27.0674 142.024 26.7136 141.626 26.2668C141.229 25.8199 140.931 25.2924 140.733 24.6842C140.546 24.0636 140.453 23.3871 140.453 22.6548ZM147.1 21.7052C147.113 20.9233 146.914 20.284 146.504 19.7875C146.107 19.2786 145.555 19.0242 144.847 19.0242C144.45 19.0242 144.096 19.1049 143.786 19.2662C143.488 19.4152 143.234 19.6138 143.023 19.862C142.812 20.1102 142.644 20.3957 142.52 20.7185C142.408 21.0412 142.334 21.3701 142.297 21.7052H147.1ZM152.538 26.2295C153.246 26.2295 153.767 26.1364 154.102 25.9502C154.45 25.7641 154.623 25.4662 154.623 25.0566C154.623 24.6345 154.456 24.2994 154.121 24.0512C153.786 23.8029 153.233 23.5236 152.464 23.2133C152.091 23.0644 151.731 22.9154 151.384 22.7665C151.049 22.6051 150.757 22.4189 150.509 22.2079C150.261 21.9969 150.062 21.7425 149.913 21.4446C149.764 21.1467 149.69 20.7805 149.69 20.3461C149.69 19.4896 150.006 18.8132 150.639 18.3167C151.272 17.8078 152.135 17.5533 153.227 17.5533C153.5 17.5533 153.773 17.5719 154.046 17.6092C154.319 17.634 154.574 17.6712 154.81 17.7209C155.046 17.7581 155.25 17.8016 155.424 17.8512C155.61 17.9009 155.753 17.9443 155.852 17.9815L155.536 19.471C155.35 19.3717 155.058 19.2724 154.661 19.1731C154.264 19.0614 153.786 19.0056 153.227 19.0056C152.743 19.0056 152.321 19.1049 151.961 19.3034C151.601 19.4896 151.421 19.7875 151.421 20.1971C151.421 20.4081 151.458 20.5943 151.533 20.7557C151.62 20.917 151.744 21.066 151.905 21.2025C152.079 21.3267 152.29 21.4446 152.538 21.5563C152.786 21.668 153.084 21.7859 153.432 21.91C153.891 22.0838 154.301 22.2576 154.661 22.4314C155.021 22.5927 155.325 22.7851 155.573 23.0085C155.834 23.2319 156.032 23.505 156.169 23.8277C156.305 24.138 156.374 24.5228 156.374 24.9821C156.374 25.8758 156.038 26.5522 155.368 27.0115C154.71 27.4708 153.767 27.7004 152.538 27.7004C151.682 27.7004 151.012 27.6259 150.527 27.477C150.043 27.3404 149.714 27.2349 149.541 27.1604L149.857 25.671C150.056 25.7454 150.372 25.8572 150.807 26.0061C151.241 26.155 151.818 26.2295 152.538 26.2295ZM166.032 22.6362C166.032 23.4057 165.921 24.1008 165.697 24.7214C165.474 25.342 165.157 25.8758 164.748 26.3226C164.351 26.7695 163.873 27.117 163.314 27.3652C162.756 27.6011 162.147 27.719 161.489 27.719C160.832 27.719 160.223 27.6011 159.665 27.3652C159.106 27.117 158.622 26.7695 158.213 26.3226C157.815 25.8758 157.505 25.342 157.282 24.7214C157.058 24.1008 156.947 23.4057 156.947 22.6362C156.947 21.879 157.058 21.1901 157.282 20.5695C157.505 19.9365 157.815 19.3965 158.213 18.9497C158.622 18.5029 159.106 18.1615 159.665 17.9257C160.223 17.6774 160.832 17.5533 161.489 17.5533C162.147 17.5533 162.756 17.6774 163.314 17.9257C163.873 18.1615 164.351 18.5029 164.748 18.9497C165.157 19.3965 165.474 19.9365 165.697 20.5695C165.921 21.1901 166.032 21.879 166.032 22.6362ZM164.226 22.6362C164.226 21.5439 163.978 20.6812 163.482 20.0482C162.998 19.4027 162.334 19.08 161.489 19.08C160.645 19.08 159.975 19.4027 159.479 20.0482C158.995 20.6812 158.753 21.5439 158.753 22.6362C158.753 23.7284 158.995 24.5973 159.479 25.2427C159.975 25.8758 160.645 26.1923 161.489 26.1923C162.334 26.1923 162.998 25.8758 163.482 25.2427C163.978 24.5973 164.226 23.7284 164.226 22.6362ZM175.068 27.1977C174.671 27.297 174.144 27.4025 173.486 27.5142C172.84 27.6259 172.09 27.6818 171.233 27.6818C170.488 27.6818 169.862 27.5763 169.353 27.3652C168.844 27.1418 168.434 26.8315 168.124 26.4343C167.813 26.0371 167.59 25.5717 167.454 25.0379C167.317 24.4918 167.249 23.8898 167.249 23.2319V17.7954H168.98V22.8596C168.98 24.0387 169.166 24.8828 169.539 25.3917C169.911 25.9006 170.538 26.155 171.419 26.155C171.605 26.155 171.798 26.1488 171.996 26.1364C172.195 26.124 172.381 26.1116 172.555 26.0992C172.729 26.0744 172.884 26.0557 173.02 26.0433C173.169 26.0185 173.275 25.9937 173.337 25.9689V17.7954H175.068V27.1977ZM180.518 17.5905C180.667 17.5905 180.835 17.603 181.021 17.6278C181.219 17.6402 181.412 17.665 181.598 17.7023C181.784 17.7271 181.952 17.7581 182.101 17.7954C182.262 17.8202 182.38 17.845 182.455 17.8698L182.157 19.3779C182.02 19.3283 181.79 19.2724 181.468 19.2104C181.157 19.1359 180.754 19.0986 180.258 19.0986C179.935 19.0986 179.612 19.1359 179.289 19.2104C178.979 19.2724 178.774 19.3159 178.675 19.3407V27.477H176.943V18.205C177.353 18.056 177.862 17.9195 178.47 17.7954C179.078 17.6588 179.761 17.5905 180.518 17.5905ZM187.225 27.7004C186.443 27.7004 185.754 27.5763 185.158 27.328C184.575 27.0798 184.079 26.7322 183.669 26.2854C183.272 25.8385 182.974 25.311 182.775 24.7028C182.577 24.0822 182.477 23.3995 182.477 22.6548C182.477 21.91 182.583 21.2274 182.794 20.6067C183.017 19.9861 183.328 19.4524 183.725 19.0056C184.122 18.5463 184.606 18.1925 185.177 17.9443C185.76 17.6836 186.406 17.5533 187.113 17.5533C187.548 17.5533 187.982 17.5905 188.417 17.665C188.851 17.7395 189.267 17.8574 189.664 18.0188L189.273 19.4896C189.012 19.3655 188.708 19.2662 188.361 19.1917C188.026 19.1173 187.666 19.08 187.281 19.08C186.313 19.08 185.568 19.3841 185.047 19.9923C184.538 20.6005 184.283 21.488 184.283 22.6548C184.283 23.1761 184.339 23.654 184.451 24.0884C184.575 24.5228 184.761 24.8952 185.009 25.2055C185.27 25.5158 185.599 25.7579 185.996 25.9316C186.393 26.093 186.878 26.1737 187.448 26.1737C187.908 26.1737 188.324 26.1302 188.696 26.0433C189.068 25.9565 189.36 25.8634 189.571 25.7641L189.813 27.2163C189.714 27.2784 189.571 27.3404 189.385 27.4025C189.199 27.4521 188.988 27.4956 188.752 27.5328C188.516 27.5825 188.261 27.6197 187.988 27.6445C187.728 27.6818 187.473 27.7004 187.225 27.7004ZM190.024 22.6548C190.024 21.7983 190.148 21.0536 190.396 20.4206C190.645 19.7751 190.974 19.2414 191.383 18.8194C191.793 18.3973 192.264 18.0808 192.798 17.8698C193.332 17.6588 193.878 17.5533 194.437 17.5533C195.74 17.5533 196.739 17.9629 197.434 18.7821C198.129 19.5889 198.477 20.824 198.477 22.4872C198.477 22.5617 198.477 22.661 198.477 22.7851C198.477 22.8968 198.471 23.0023 198.458 23.1016H191.83C191.904 24.107 192.196 24.8704 192.705 25.3917C193.214 25.913 194.008 26.1737 195.088 26.1737C195.696 26.1737 196.205 26.124 196.615 26.0247C197.037 25.913 197.353 25.8075 197.564 25.7082L197.806 27.1604C197.595 27.2722 197.223 27.3901 196.689 27.5142C196.168 27.6383 195.572 27.7004 194.902 27.7004C194.058 27.7004 193.326 27.5763 192.705 27.328C192.097 27.0674 191.594 26.7136 191.197 26.2668C190.8 25.8199 190.502 25.2924 190.303 24.6842C190.117 24.0636 190.024 23.3871 190.024 22.6548ZM196.671 21.7052C196.683 20.9233 196.485 20.284 196.075 19.7875C195.678 19.2786 195.125 19.0242 194.418 19.0242C194.021 19.0242 193.667 19.1049 193.357 19.2662C193.059 19.4152 192.804 19.6138 192.593 19.862C192.382 20.1102 192.215 20.3957 192.091 20.7185C191.979 21.0412 191.904 21.3701 191.867 21.7052H196.671ZM77.8624 34.6964C80.336 34.6964 82.2351 35.1353 83.5597 36.013C84.8842 36.8748 85.5465 38.2951 85.5465 40.274C85.5465 42.2688 84.8763 43.7131 83.5357 44.6067C82.1952 45.4845 80.2802 45.9233 77.7906 45.9233H76.6176V51.477H72.8833V35.1273C73.6972 34.9677 74.559 34.856 75.4686 34.7921C76.3783 34.7283 77.1762 34.6964 77.8624 34.6964ZM78.1018 37.8801C77.8305 37.8801 77.5592 37.8881 77.2879 37.9041C77.0326 37.92 76.8091 37.936 76.6176 37.952V42.7396H77.7906C79.0833 42.7396 80.0567 42.564 80.711 42.2129C81.3654 41.8618 81.6925 41.2075 81.6925 40.25C81.6925 39.7872 81.6047 39.4042 81.4292 39.101C81.2696 38.7978 81.0302 38.5584 80.711 38.3828C80.4078 38.1913 80.0328 38.0637 79.586 37.9998C79.1391 37.92 78.6444 37.8801 78.1018 37.8801ZM91.2853 48.9874C91.6364 48.9874 91.9715 48.9794 92.2907 48.9635C92.6099 48.9475 92.8652 48.9236 93.0567 48.8917V46.1867C92.9131 46.1547 92.6976 46.1228 92.4104 46.0909C92.1231 46.059 91.8598 46.043 91.6204 46.043C91.2853 46.043 90.9661 46.067 90.6629 46.1148C90.3756 46.1468 90.1203 46.2186 89.8969 46.3303C89.6735 46.442 89.4979 46.5936 89.3703 46.7851C89.2426 46.9766 89.1787 47.216 89.1787 47.5032C89.1787 48.0618 89.3623 48.4528 89.7293 48.6762C90.1123 48.8837 90.631 48.9874 91.2853 48.9874ZM90.998 38.5504C92.0513 38.5504 92.929 38.6701 93.6312 38.9095C94.3334 39.1489 94.892 39.492 95.3069 39.9388C95.7378 40.3857 96.041 40.9283 96.2165 41.5666C96.3921 42.205 96.4799 42.9151 96.4799 43.6971V51.1179C95.9692 51.2296 95.259 51.3573 94.3494 51.5009C93.4397 51.6605 92.3386 51.7403 91.0459 51.7403C90.232 51.7403 89.4899 51.6685 88.8197 51.5248C88.1654 51.3812 87.5988 51.1498 87.1201 50.8306C86.6413 50.4955 86.2743 50.0646 86.0189 49.538C85.7636 49.0113 85.6359 48.365 85.6359 47.599C85.6359 46.8649 85.7795 46.2425 86.0668 45.7318C86.37 45.2211 86.769 44.8142 87.2637 44.511C87.7584 44.2078 88.325 43.9923 88.9633 43.8647C89.6017 43.721 90.2639 43.6492 90.9502 43.6492C91.413 43.6492 91.8199 43.6732 92.171 43.721C92.5381 43.7529 92.8333 43.8008 93.0567 43.8647V43.5295C93.0567 42.9231 92.8732 42.4364 92.5061 42.0693C92.1391 41.7023 91.5007 41.5187 90.5911 41.5187C89.9847 41.5187 89.3862 41.5666 88.7957 41.6624C88.2053 41.7422 87.6946 41.8618 87.2637 42.0214L86.8089 39.1489C87.0163 39.085 87.2717 39.0212 87.5749 38.9574C87.8941 38.8776 88.2372 38.8137 88.6042 38.7659C88.9713 38.702 89.3543 38.6541 89.7533 38.6222C90.1682 38.5744 90.5831 38.5504 90.998 38.5504ZM106.664 45.277C106.664 44.1759 106.417 43.2981 105.922 42.6438C105.427 41.9736 104.693 41.6384 103.72 41.6384C103.401 41.6384 103.105 41.6544 102.834 41.6863C102.563 41.7023 102.339 41.7262 102.164 41.7581V48.1974C102.387 48.3411 102.674 48.4608 103.026 48.5565C103.393 48.6523 103.76 48.7001 104.127 48.7001C105.818 48.7001 106.664 47.5591 106.664 45.277ZM110.303 45.1813C110.303 46.1547 110.183 47.0404 109.944 47.8384C109.704 48.6363 109.353 49.3225 108.89 49.897C108.428 50.4716 107.853 50.9184 107.167 51.2376C106.481 51.5568 105.691 51.7163 104.797 51.7163C104.302 51.7163 103.839 51.6685 103.409 51.5727C102.978 51.477 102.563 51.3413 102.164 51.1658V55.9055H98.597V39.3164C98.9162 39.2207 99.2833 39.1329 99.6982 39.0531C100.113 38.9574 100.544 38.8776 100.991 38.8137C101.454 38.7499 101.916 38.702 102.379 38.6701C102.858 38.6222 103.313 38.5983 103.744 38.5983C104.781 38.5983 105.707 38.7579 106.521 39.0771C107.334 39.3803 108.021 39.8191 108.579 40.3936C109.138 40.9522 109.561 41.6384 109.848 42.4523C110.151 43.2662 110.303 44.1759 110.303 45.1813ZM111.338 45.277C111.338 44.1599 111.505 43.1864 111.84 42.3566C112.191 41.5108 112.646 40.8086 113.205 40.25C113.763 39.6915 114.402 39.2686 115.12 38.9813C115.854 38.694 116.604 38.5504 117.37 38.5504C119.157 38.5504 120.57 39.101 121.607 40.2021C122.644 41.2873 123.163 42.8912 123.163 45.0137C123.163 45.2211 123.155 45.4526 123.139 45.7079C123.123 45.9473 123.107 46.1627 123.091 46.3542H115C115.08 47.0883 115.423 47.6708 116.029 48.1017C116.636 48.5326 117.45 48.748 118.471 48.748C119.125 48.748 119.764 48.6922 120.386 48.5805C121.024 48.4528 121.543 48.3012 121.942 48.1256L122.421 51.0221C122.229 51.1179 121.974 51.2136 121.655 51.3094C121.336 51.4051 120.977 51.4849 120.578 51.5488C120.195 51.6286 119.78 51.6924 119.333 51.7403C118.886 51.7882 118.439 51.8121 117.992 51.8121C116.859 51.8121 115.87 51.6445 115.024 51.3094C114.194 50.9743 113.5 50.5194 112.941 49.9449C112.399 49.3545 111.992 48.6602 111.721 47.8623C111.465 47.0644 111.338 46.2026 111.338 45.277ZM119.716 43.9125C119.7 43.6093 119.644 43.3141 119.548 43.0268C119.468 42.7396 119.333 42.4842 119.141 42.2608C118.966 42.0374 118.734 41.8539 118.447 41.7102C118.176 41.5666 117.833 41.4948 117.418 41.4948C117.019 41.4948 116.676 41.5666 116.388 41.7102C116.101 41.8379 115.862 42.0135 115.67 42.2369C115.479 42.4603 115.327 42.7236 115.215 43.0268C115.12 43.3141 115.048 43.6093 115 43.9125H119.716ZM132.396 42.0454C132.077 41.9656 131.701 41.8858 131.271 41.806C130.84 41.7102 130.377 41.6624 129.882 41.6624C129.659 41.6624 129.387 41.6863 129.068 41.7342C128.765 41.7661 128.534 41.806 128.374 41.8539V51.477H124.807V39.5558C125.446 39.3324 126.196 39.1249 127.057 38.9334C127.935 38.726 128.909 38.6222 129.978 38.6222C130.169 38.6222 130.401 38.6382 130.672 38.6701C130.943 38.6861 131.215 38.718 131.486 38.7659C131.757 38.7978 132.029 38.8456 132.3 38.9095C132.571 38.9574 132.803 39.0212 132.994 39.101L132.396 42.0454ZM142.206 44.2477C141.887 45.4605 141.544 46.6654 141.177 47.8623C140.826 49.0592 140.451 50.2641 140.052 51.477H137.275C136.988 50.8067 136.677 50.0088 136.342 49.0832C136.006 48.1576 135.655 47.1522 135.288 46.067C134.937 44.9658 134.57 43.8088 134.187 42.5959C133.82 41.3671 133.461 40.1303 133.11 38.8855H136.868C136.996 39.4601 137.131 40.0904 137.275 40.7767C137.435 41.4469 137.594 42.1411 137.754 42.8593C137.929 43.5774 138.105 44.3035 138.281 45.0376C138.472 45.7558 138.664 46.45 138.855 47.1202C139.062 46.4181 139.262 45.6999 139.453 44.9658C139.661 44.2317 139.852 43.5136 140.028 42.8114C140.219 42.0932 140.395 41.407 140.555 40.7527C140.73 40.0824 140.882 39.4601 141.009 38.8855H143.595C143.722 39.4601 143.866 40.0824 144.026 40.7527C144.185 41.407 144.353 42.0932 144.528 42.8114C144.704 43.5136 144.887 44.2317 145.079 44.9658C145.27 45.6999 145.47 46.4181 145.677 47.1202C145.869 46.45 146.06 45.7558 146.252 45.0376C146.443 44.3035 146.619 43.5774 146.779 42.8593C146.954 42.1411 147.114 41.4469 147.257 40.7767C147.417 40.0904 147.56 39.4601 147.688 38.8855H151.399C151.047 40.1303 150.68 41.3671 150.297 42.5959C149.93 43.8088 149.563 44.9658 149.196 46.067C148.845 47.1522 148.494 48.1576 148.143 49.0832C147.808 50.0088 147.497 50.8067 147.209 51.477H144.433C144.034 50.2641 143.643 49.0592 143.26 47.8623C142.877 46.6654 142.526 45.4605 142.206 44.2477ZM163.707 45.1573C163.707 46.1468 163.563 47.0564 163.276 47.8863C162.989 48.7001 162.574 49.4023 162.031 49.9928C161.489 50.5673 160.834 51.0142 160.068 51.3333C159.318 51.6525 158.472 51.8121 157.531 51.8121C156.605 51.8121 155.759 51.6525 154.993 51.3333C154.243 51.0142 153.597 50.5673 153.054 49.9928C152.512 49.4023 152.089 48.7001 151.786 47.8863C151.482 47.0564 151.331 46.1468 151.331 45.1573C151.331 44.1679 151.482 43.2662 151.786 42.4523C152.105 41.6384 152.536 40.9442 153.078 40.3697C153.637 39.7952 154.291 39.3483 155.041 39.0292C155.807 38.71 156.637 38.5504 157.531 38.5504C158.44 38.5504 159.27 38.71 160.02 39.0292C160.786 39.3483 161.441 39.7952 161.983 40.3697C162.526 40.9442 162.949 41.6384 163.252 42.4523C163.555 43.2662 163.707 44.1679 163.707 45.1573ZM160.068 45.1573C160.068 44.0562 159.845 43.1944 159.398 42.572C158.967 41.9337 158.345 41.6145 157.531 41.6145C156.717 41.6145 156.087 41.9337 155.64 42.572C155.193 43.1944 154.969 44.0562 154.969 45.1573C154.969 46.2585 155.193 47.1362 155.64 47.7905C156.087 48.4288 156.717 48.748 157.531 48.748C158.345 48.748 158.967 48.4288 159.398 47.7905C159.845 47.1362 160.068 46.2585 160.068 45.1573ZM172.95 42.0454C172.631 41.9656 172.256 41.8858 171.825 41.806C171.394 41.7102 170.931 41.6624 170.437 41.6624C170.213 41.6624 169.942 41.6863 169.623 41.7342C169.319 41.7661 169.088 41.806 168.928 41.8539V51.477H165.362V39.5558C166 39.3324 166.75 39.1249 167.612 38.9334C168.49 38.726 169.463 38.6222 170.532 38.6222C170.724 38.6222 170.955 38.6382 171.227 38.6701C171.498 38.6861 171.769 38.718 172.04 38.7659C172.312 38.7978 172.583 38.8456 172.854 38.9095C173.126 38.9574 173.357 39.0212 173.549 39.101L172.95 42.0454ZM177.919 43.4338C178.27 43.0508 178.629 42.6518 178.996 42.2369C179.379 41.8219 179.747 41.415 180.098 41.016C180.449 40.6011 180.776 40.2101 181.079 39.8431C181.398 39.476 181.67 39.1568 181.893 38.8855H186.13C185.284 39.859 184.454 40.7926 183.64 41.6863C182.843 42.564 181.965 43.4737 181.007 44.4152C181.486 44.8461 181.981 45.3648 182.491 45.9712C183.002 46.5617 183.497 47.1761 183.976 47.8144C184.454 48.4528 184.893 49.0911 185.292 49.7295C185.691 50.3678 186.026 50.9503 186.298 51.477H182.204C181.949 51.062 181.654 50.6072 181.318 50.1125C180.999 49.6018 180.656 49.0991 180.289 48.6044C179.922 48.0937 179.531 47.607 179.116 47.1442C178.717 46.6814 178.318 46.2904 177.919 45.9712V51.477H174.352V33.4755L177.919 32.901V43.4338ZM190.882 49.5859C190.882 50.304 190.651 50.8546 190.188 51.2376C189.741 51.6046 189.231 51.7882 188.656 51.7882C188.082 51.7882 187.563 51.6046 187.1 51.2376C186.653 50.8546 186.43 50.304 186.43 49.5859C186.43 48.8677 186.653 48.3251 187.1 47.9581C187.563 47.5751 188.082 47.3836 188.656 47.3836C189.231 47.3836 189.741 47.5751 190.188 47.9581C190.651 48.3251 190.882 48.8677 190.882 49.5859Z" fill="white"/>
<g clip-path="url(#clip0_0_4373)">
<path d="M0.484863 0.69257V60.5377H60.33V0.69257H0.484863ZM50.4555 50.5136H10.5089V10.7166H50.6051L50.4555 50.5136Z" fill="url(#paint0_radial_0_4373)"/>
<path d="M42.6757 18.7963H22.7772L18.1392 26.7258H38.0377L42.6757 18.7963Z" fill="url(#paint1_radial_0_4373)"/>
<path d="M42.6757 34.6547H22.7772L18.1392 42.5842H38.0377L42.6757 34.6547Z" fill="url(#paint2_radial_0_4373)"/>
</g>
<defs>
<radialGradient id="paint0_radial_0_4373" cx="0" cy="0" r="1" gradientUnits="userSpaceOnUse" gradientTransform="translate(-21.5096 51.5228) scale(85.3825)">
<stop stop-color="white"/>
<stop offset="0.3" stop-color="white"/>
<stop offset="1" stop-color="white"/>
</radialGradient>
<radialGradient id="paint1_radial_0_4373" cx="0" cy="0" r="1" gradientUnits="userSpaceOnUse" gradientTransform="translate(9.1389 25.3998) scale(34.8164)">
<stop stop-color="white"/>
<stop offset="0.3" stop-color="white"/>
<stop offset="1" stop-color="white"/>
</radialGradient>
<radialGradient id="paint2_radial_0_4373" cx="0" cy="0" r="1" gradientUnits="userSpaceOnUse" gradientTransform="translate(9.1389 41.4238) scale(34.8164)">
<stop stop-color="white"/>
<stop offset="0.3" stop-color="white"/>
<stop offset="1" stop-color="white"/>
</radialGradient>
<clipPath id="clip0_0_4373">
<rect x="0.484863" y="0.692993" width="59.8451" height="59.8451" rx="5.31956" fill="white"/>
</clipPath>
</defs>
</svg>
