<svg width="21" height="21" viewBox="0 0 21 21" fill="none" xmlns="http://www.w3.org/2000/svg">
<g clip-path="url(#clip0_177_3678)">
<path d="M0.567383 0.98584V20.6102H20.1917V0.98584H0.567383ZM16.9537 17.3231H3.85446V4.27292H17.0028L16.9537 17.3231Z" fill="url(#paint0_radial_177_3678)"/>
<path d="M14.4025 6.92212H7.87745L6.35657 9.52234H12.8817L14.4025 6.92212Z" fill="url(#paint1_radial_177_3678)"/>
<path d="M14.4025 12.1227H7.87745L6.35657 14.7229H12.8817L14.4025 12.1227Z" fill="url(#paint2_radial_177_3678)"/>
</g>
<defs>
<radialGradient id="paint0_radial_177_3678" cx="0" cy="0" r="1" gradientUnits="userSpaceOnUse" gradientTransform="translate(-6.645 17.654) scale(27.9985)">
<stop stop-color="white"/>
<stop offset="0.3" stop-color="white"/>
<stop offset="1" stop-color="white"/>
</radialGradient>
<radialGradient id="paint1_radial_177_3678" cx="0" cy="0" r="1" gradientUnits="userSpaceOnUse" gradientTransform="translate(3.40521 9.08752) scale(11.417)">
<stop stop-color="white"/>
<stop offset="0.3" stop-color="white"/>
<stop offset="1" stop-color="white"/>
</radialGradient>
<radialGradient id="paint2_radial_177_3678" cx="0" cy="0" r="1" gradientUnits="userSpaceOnUse" gradientTransform="translate(3.40521 14.3424) scale(11.417)">
<stop stop-color="white"/>
<stop offset="0.3" stop-color="white"/>
<stop offset="1" stop-color="white"/>
</radialGradient>
<clipPath id="clip0_177_3678">
<path d="M0.567383 3.77686C0.567383 2.23542 1.81696 0.98584 3.3584 0.98584H17.4007C18.9421 0.98584 20.1917 2.23542 20.1917 3.77686V17.8192C20.1917 19.3606 18.9421 20.6102 17.4007 20.6102H3.3584C1.81697 20.6102 0.567383 19.3606 0.567383 17.8192V3.77686Z" fill="white"/>
</clipPath>
</defs>
</svg>
