<svg width="191" height="45" viewBox="0 0 191 45" fill="none" xmlns="http://www.w3.org/2000/svg">
<g clip-path="url(#clip0_0_4412)">
<path d="M0.58252 0.871979V44.2377H45.9941V0.871979H0.58252ZM38.5012 36.9739H8.18896V8.13573H38.6147L38.5012 36.9739Z" fill="url(#paint0_radial_0_4412)"/>
<path d="M32.6002 13.9902H17.5008L13.9814 19.7361H29.0808L32.6002 13.9902Z" fill="url(#paint1_radial_0_4412)"/>
<path d="M32.6002 25.4817H17.5008L13.9814 31.2277H29.0808L32.6002 25.4817Z" fill="url(#paint2_radial_0_4412)"/>
</g>
<path d="M65.6692 22.7639C65.8431 22.7797 66.0408 22.7955 66.2621 22.8113C66.4993 22.8113 66.776 22.8113 67.0923 22.8113C68.9423 22.8113 70.31 22.3448 71.1955 21.4119C72.0967 20.479 72.5474 19.1904 72.5474 17.5459C72.5474 15.8224 72.1205 14.5179 71.2666 13.6325C70.4128 12.747 69.0609 12.3043 67.2109 12.3043C66.9579 12.3043 66.697 12.3122 66.4282 12.328C66.1594 12.328 65.9064 12.3438 65.6692 12.3754V22.7639ZM76.366 17.5459C76.366 18.969 76.1446 20.2102 75.7019 21.2696C75.2591 22.329 74.6267 23.2066 73.8044 23.9023C72.998 24.598 72.0098 25.1198 70.8397 25.4677C69.6696 25.8156 68.3572 25.9895 66.9025 25.9895C66.2384 25.9895 65.4636 25.9579 64.5782 25.8946C63.6927 25.8472 62.8231 25.7365 61.9692 25.5626V9.553C62.8231 9.39488 63.7085 9.2921 64.6256 9.24467C65.5585 9.18142 66.357 9.1498 67.0211 9.1498C68.4284 9.1498 69.7012 9.30791 70.8397 9.62415C71.994 9.94039 72.9822 10.4385 73.8044 11.1184C74.6267 11.7983 75.2591 12.6679 75.7019 13.7273C76.1446 14.7867 76.366 16.0596 76.366 17.5459ZM83.0643 23.3094C83.4121 23.3094 83.7442 23.3015 84.0604 23.2857C84.3766 23.2698 84.6296 23.2461 84.8194 23.2145V20.5344C84.6771 20.5028 84.4636 20.4711 84.179 20.4395C83.8944 20.4079 83.6335 20.3921 83.3963 20.3921C83.0643 20.3921 82.748 20.4158 82.4476 20.4632C82.163 20.4948 81.91 20.566 81.6886 20.6767C81.4673 20.7874 81.2933 20.9376 81.1668 21.1273C81.0403 21.3171 80.9771 21.5542 80.9771 21.8389C80.9771 22.3923 81.1589 22.7797 81.5226 23.001C81.9021 23.2066 82.416 23.3094 83.0643 23.3094ZM82.7796 12.9684C83.8232 12.9684 84.6929 13.087 85.3886 13.3241C86.0843 13.5613 86.6377 13.9013 87.0489 14.344C87.4758 14.7867 87.7762 15.3244 87.9501 15.9568C88.1241 16.5893 88.211 17.2929 88.211 18.0677V25.4203C87.7051 25.5309 87.0014 25.6574 86.1001 25.7997C85.1989 25.9579 84.1078 26.0369 82.8271 26.0369C82.0207 26.0369 81.2854 25.9658 80.6213 25.8235C79.973 25.6812 79.4117 25.4519 78.9373 25.1356C78.463 24.8036 78.0993 24.3767 77.8463 23.8549C77.5933 23.3331 77.4668 22.6927 77.4668 21.9337C77.4668 21.2064 77.6091 20.5897 77.8938 20.0837C78.1942 19.5778 78.5895 19.1746 79.0797 18.8741C79.5698 18.5737 80.1311 18.3602 80.7636 18.2337C81.3961 18.0914 82.0523 18.0203 82.7322 18.0203C83.1908 18.0203 83.594 18.044 83.9418 18.0914C84.3055 18.1231 84.598 18.1705 84.8194 18.2337V17.9017C84.8194 17.3008 84.6375 16.8186 84.2739 16.4549C83.9102 16.0912 83.2777 15.9094 82.3764 15.9094C81.7756 15.9094 81.1826 15.9568 80.5976 16.0517C80.0126 16.1308 79.5066 16.2493 79.0797 16.4075L78.629 13.5613C78.8346 13.4981 79.0876 13.4348 79.388 13.3716C79.7042 13.2925 80.0442 13.2293 80.4079 13.1818C80.7715 13.1186 81.151 13.0712 81.5463 13.0395C81.9574 12.9921 82.3685 12.9684 82.7796 12.9684ZM94.0657 23.2382C94.714 23.2382 95.1725 23.175 95.4413 23.0485C95.7101 22.922 95.8445 22.6769 95.8445 22.3132C95.8445 22.0286 95.6706 21.7835 95.3227 21.578C94.9749 21.3566 94.4452 21.1115 93.7336 20.8427C93.1802 20.6372 92.6742 20.4237 92.2157 20.2023C91.7729 19.981 91.3935 19.7201 91.0772 19.4196C90.761 19.1034 90.5159 18.7318 90.342 18.3049C90.168 17.878 90.0811 17.3641 90.0811 16.7632C90.0811 15.5932 90.5159 14.6682 91.3856 13.9882C92.2552 13.3083 93.449 12.9684 94.967 12.9684C95.7259 12.9684 96.4533 13.0395 97.149 13.1818C97.8447 13.3083 98.3981 13.4506 98.8093 13.6088L98.1926 16.36C97.7815 16.2177 97.3308 16.0912 96.8407 15.9805C96.3663 15.8699 95.8287 15.8145 95.2279 15.8145C94.121 15.8145 93.5676 16.1229 93.5676 16.7395C93.5676 16.8818 93.5913 17.0083 93.6388 17.119C93.6862 17.2297 93.7811 17.3404 93.9234 17.4511C94.0657 17.5459 94.2554 17.6566 94.4926 17.7831C94.7456 17.8938 95.0618 18.0203 95.4413 18.1626C96.2161 18.4472 96.8565 18.7318 97.3625 19.0164C97.8684 19.2852 98.2637 19.5857 98.5484 19.9177C98.8488 20.234 99.0543 20.5897 99.165 20.985C99.2915 21.3803 99.3548 21.8389 99.3548 22.3607C99.3548 23.594 98.8883 24.5269 97.9554 25.1594C97.0383 25.7918 95.7338 26.1081 94.042 26.1081C92.9351 26.1081 92.0101 26.0132 91.267 25.8235C90.5396 25.6337 90.0336 25.4756 89.749 25.3491L90.342 22.4792C90.9428 22.7164 91.5595 22.9062 92.192 23.0485C92.8244 23.175 93.449 23.2382 94.0657 23.2382ZM101.073 25.776V7.94018L104.607 7.37095V13.3479C104.845 13.2688 105.145 13.1976 105.509 13.1344C105.888 13.0553 106.252 13.0158 106.6 13.0158C107.612 13.0158 108.45 13.1581 109.114 13.4427C109.794 13.7115 110.331 14.0989 110.727 14.6049C111.138 15.1109 111.422 15.7117 111.58 16.4075C111.754 17.1032 111.841 17.878 111.841 18.7318V25.776H108.307V19.1587C108.307 18.0203 108.157 17.2139 107.857 16.7395C107.572 16.2652 107.035 16.028 106.244 16.028C105.928 16.028 105.627 16.0596 105.343 16.1229C105.074 16.1703 104.829 16.2256 104.607 16.2889V25.776H101.073ZM122.111 19.4434C122.111 17.1664 121.273 16.028 119.597 16.028C119.233 16.028 118.869 16.0754 118.506 16.1703C118.158 16.2652 117.873 16.3837 117.652 16.5261V22.9536C117.826 22.9852 118.047 23.0169 118.316 23.0485C118.585 23.0643 118.877 23.0722 119.193 23.0722C120.158 23.0722 120.885 22.7401 121.375 22.076C121.866 21.4119 122.111 20.5344 122.111 19.4434ZM125.716 19.5382C125.716 20.5344 125.566 21.4357 125.265 22.2421C124.981 23.0485 124.561 23.7363 124.008 24.3055C123.455 24.8748 122.775 25.3175 121.968 25.6337C121.162 25.9342 120.245 26.0844 119.217 26.0844C118.79 26.0844 118.34 26.0606 117.865 26.0132C117.407 25.9816 116.948 25.9342 116.49 25.8709C116.047 25.8077 115.62 25.7365 115.209 25.6574C114.798 25.5626 114.434 25.4677 114.118 25.3728V7.94018L117.652 7.37095V13.585C118.047 13.4111 118.458 13.2767 118.885 13.1818C119.312 13.087 119.77 13.0395 120.261 13.0395C121.146 13.0395 121.929 13.1976 122.609 13.5139C123.289 13.8143 123.858 14.2491 124.316 14.8184C124.775 15.3876 125.123 16.0754 125.36 16.8818C125.597 17.6724 125.716 18.5579 125.716 19.5382ZM139.179 19.5145C139.179 20.4948 139.036 21.3961 138.752 22.2183C138.467 23.0248 138.056 23.7205 137.518 24.3055C136.981 24.8748 136.333 25.3175 135.574 25.6337C134.83 25.95 133.992 26.1081 133.059 26.1081C132.142 26.1081 131.304 25.95 130.545 25.6337C129.802 25.3175 129.162 24.8748 128.624 24.3055C128.087 23.7205 127.668 23.0248 127.367 22.2183C127.067 21.3961 126.917 20.4948 126.917 19.5145C126.917 18.5342 127.067 17.6408 127.367 16.8344C127.683 16.028 128.11 15.3402 128.648 14.7709C129.201 14.2017 129.85 13.759 130.593 13.4427C131.352 13.1265 132.174 12.9684 133.059 12.9684C133.961 12.9684 134.783 13.1265 135.526 13.4427C136.285 13.759 136.933 14.2017 137.471 14.7709C138.009 15.3402 138.428 16.028 138.728 16.8344C139.028 17.6408 139.179 18.5342 139.179 19.5145ZM135.574 19.5145C135.574 18.4235 135.352 17.5696 134.909 16.953C134.483 16.3205 133.866 16.0043 133.059 16.0043C132.253 16.0043 131.628 16.3205 131.186 16.953C130.743 17.5696 130.522 18.4235 130.522 19.5145C130.522 20.6055 130.743 21.4752 131.186 22.1235C131.628 22.756 132.253 23.0722 133.059 23.0722C133.866 23.0722 134.483 22.756 134.909 22.1235C135.352 21.4752 135.574 20.6055 135.574 19.5145ZM145.761 23.3094C146.109 23.3094 146.441 23.3015 146.757 23.2857C147.074 23.2698 147.327 23.2461 147.516 23.2145V20.5344C147.374 20.5028 147.16 20.4711 146.876 20.4395C146.591 20.4079 146.33 20.3921 146.093 20.3921C145.761 20.3921 145.445 20.4158 145.144 20.4632C144.86 20.4948 144.607 20.566 144.386 20.6767C144.164 20.7874 143.99 20.9376 143.864 21.1273C143.737 21.3171 143.674 21.5542 143.674 21.8389C143.674 22.3923 143.856 22.7797 144.219 23.001C144.599 23.2066 145.113 23.3094 145.761 23.3094ZM145.477 12.9684C146.52 12.9684 147.39 13.087 148.085 13.3241C148.781 13.5613 149.335 13.9013 149.746 14.344C150.173 14.7867 150.473 15.3244 150.647 15.9568C150.821 16.5893 150.908 17.2929 150.908 18.0677V25.4203C150.402 25.5309 149.698 25.6574 148.797 25.7997C147.896 25.9579 146.805 26.0369 145.524 26.0369C144.718 26.0369 143.982 25.9658 143.318 25.8235C142.67 25.6812 142.109 25.4519 141.634 25.1356C141.16 24.8036 140.796 24.3767 140.543 23.8549C140.29 23.3331 140.164 22.6927 140.164 21.9337C140.164 21.2064 140.306 20.5897 140.591 20.0837C140.891 19.5778 141.286 19.1746 141.777 18.8741C142.267 18.5737 142.828 18.3602 143.461 18.2337C144.093 18.0914 144.749 18.0203 145.429 18.0203C145.888 18.0203 146.291 18.044 146.639 18.0914C147.002 18.1231 147.295 18.1705 147.516 18.2337V17.9017C147.516 17.3008 147.334 16.8186 146.971 16.4549C146.607 16.0912 145.975 15.9094 145.073 15.9094C144.472 15.9094 143.88 15.9568 143.294 16.0517C142.709 16.1308 142.203 16.2493 141.777 16.4075L141.326 13.5613C141.531 13.4981 141.784 13.4348 142.085 13.3716C142.401 13.2925 142.741 13.2293 143.105 13.1818C143.468 13.1186 143.848 13.0712 144.243 13.0395C144.654 12.9921 145.065 12.9684 145.477 12.9684ZM160.7 16.4312C160.383 16.3521 160.012 16.2731 159.585 16.194C159.158 16.0991 158.7 16.0517 158.209 16.0517C157.988 16.0517 157.719 16.0754 157.403 16.1229C157.103 16.1545 156.873 16.194 156.715 16.2414V25.776H153.181V13.9645C153.814 13.7432 154.557 13.5376 155.411 13.3479C156.28 13.1423 157.245 13.0395 158.304 13.0395C158.494 13.0395 158.723 13.0553 158.992 13.087C159.261 13.1028 159.53 13.1344 159.798 13.1818C160.067 13.2135 160.336 13.2609 160.605 13.3241C160.874 13.3716 161.103 13.4348 161.293 13.5139L160.7 16.4312ZM165.045 19.4434C165.045 20.5344 165.29 21.4119 165.781 22.076C166.271 22.7401 166.998 23.0722 167.963 23.0722C168.279 23.0722 168.571 23.0643 168.84 23.0485C169.109 23.0169 169.33 22.9852 169.504 22.9536V16.5261C169.283 16.3837 168.99 16.2652 168.627 16.1703C168.279 16.0754 167.923 16.028 167.559 16.028C165.883 16.028 165.045 17.1664 165.045 19.4434ZM173.038 25.3728C172.722 25.4677 172.358 25.5626 171.947 25.6574C171.536 25.7365 171.101 25.8077 170.643 25.8709C170.2 25.9342 169.741 25.9816 169.267 26.0132C168.809 26.0606 168.366 26.0844 167.939 26.0844C166.911 26.0844 165.994 25.9342 165.188 25.6337C164.381 25.3333 163.701 24.9064 163.148 24.353C162.594 23.7837 162.168 23.1038 161.867 22.3132C161.583 21.5068 161.44 20.6055 161.44 19.6094C161.44 18.5974 161.567 17.6882 161.82 16.8818C162.073 16.0596 162.436 15.3639 162.911 14.7947C163.385 14.2254 163.962 13.7906 164.642 13.4902C165.338 13.1897 166.128 13.0395 167.014 13.0395C167.504 13.0395 167.939 13.087 168.318 13.1818C168.714 13.2767 169.109 13.4111 169.504 13.585V7.94018L173.038 7.37095V25.3728Z" fill="white"/>
<path d="M65.2678 31.3755C66.4316 31.3755 67.3217 31.5875 67.9383 32.0114C68.5626 32.4352 68.8747 33.098 68.8747 33.9998C68.8747 34.4699 68.7899 34.8745 68.6204 35.2136C68.4585 35.545 68.2196 35.8186 67.9036 36.0344C67.5876 36.2425 67.2023 36.3966 66.7476 36.4968C66.2929 36.597 65.7726 36.6471 65.1869 36.6471H64.4586V39.4678H63.002V31.5721C63.3411 31.495 63.7149 31.4449 64.1234 31.4218C64.5395 31.391 64.921 31.3755 65.2678 31.3755ZM65.3719 32.6356C65.0019 32.6356 64.6975 32.6472 64.4586 32.6703V35.3986H65.1638C65.8651 35.3986 66.4046 35.3022 66.7823 35.1096C67.1599 34.9092 67.3487 34.5354 67.3487 33.9882C67.3487 33.7262 67.2986 33.5065 67.1984 33.3293C67.0982 33.152 66.9595 33.0133 66.7823 32.9131C66.605 32.8129 66.3931 32.7435 66.1464 32.705C65.9075 32.6587 65.6493 32.6356 65.3719 32.6356ZM74.6312 36.439C74.6312 36.9168 74.5618 37.3523 74.4231 37.7453C74.2844 38.1384 74.0879 38.4736 73.8335 38.7511C73.5792 39.0285 73.2709 39.2443 72.9087 39.3985C72.5542 39.5526 72.1611 39.6297 71.7295 39.6297C71.2979 39.6297 70.9049 39.5526 70.5504 39.3985C70.1959 39.2443 69.8914 39.0285 69.6371 38.7511C69.3828 38.4736 69.1824 38.1384 69.036 37.7453C68.8972 37.3523 68.8279 36.9168 68.8279 36.439C68.8279 35.9612 68.8972 35.5296 69.036 35.1442C69.1824 34.7512 69.3828 34.4159 69.6371 34.1385C69.8991 33.861 70.2074 33.6491 70.5619 33.5027C70.9165 33.3485 71.3057 33.2714 71.7295 33.2714C72.1534 33.2714 72.5426 33.3485 72.8971 33.5027C73.2594 33.6491 73.5676 33.861 73.822 34.1385C74.0763 34.4159 74.2728 34.7512 74.4116 35.1442C74.558 35.5296 74.6312 35.9612 74.6312 36.439ZM73.1977 36.439C73.1977 35.8379 73.0667 35.3639 72.8047 35.0171C72.5503 34.6626 72.192 34.4853 71.7295 34.4853C71.2671 34.4853 70.9049 34.6626 70.6429 35.0171C70.3885 35.3639 70.2614 35.8379 70.2614 36.439C70.2614 37.0479 70.3885 37.5295 70.6429 37.8841C70.9049 38.2386 71.2671 38.4158 71.7295 38.4158C72.192 38.4158 72.5503 38.2386 72.8047 37.8841C73.0667 37.5295 73.1977 37.0479 73.1977 36.439ZM78.786 35.6645C78.6087 36.3427 78.416 37.0055 78.2079 37.6528C78.0076 38.2925 77.8072 38.8975 77.6068 39.4678H76.4623C76.3082 39.1133 76.1463 38.7087 75.9768 38.254C75.8072 37.7993 75.6377 37.3137 75.4681 36.7974C75.2986 36.281 75.129 35.7377 74.9595 35.1674C74.7899 34.597 74.6242 34.0152 74.4624 33.4217H75.9421C76.0115 33.7454 76.0924 34.0961 76.1849 34.4737C76.2774 34.8437 76.3737 35.2252 76.4739 35.6182C76.5741 36.0036 76.6781 36.3812 76.786 36.7511C76.8939 37.1211 77.0018 37.4602 77.1097 37.7685C77.2253 37.4139 77.3371 37.0479 77.445 36.6702C77.5606 36.2926 77.6685 35.9149 77.7686 35.5373C77.8688 35.1597 77.9613 34.7936 78.0461 34.4391C78.1386 34.0768 78.2195 33.7377 78.2889 33.4217H79.364C79.4333 33.7377 79.5104 34.0768 79.5952 34.4391C79.68 34.7936 79.7686 35.1597 79.8611 35.5373C79.9613 35.9149 80.0653 36.2926 80.1732 36.6702C80.2888 37.0479 80.4044 37.4139 80.52 37.7685C80.6202 37.4602 80.7243 37.1211 80.8322 36.7511C80.9401 36.3812 81.0441 36.0036 81.1443 35.6182C81.2522 35.2252 81.3524 34.8437 81.4449 34.4737C81.5373 34.0961 81.6183 33.7454 81.6876 33.4217H83.1327C82.9708 34.0152 82.8051 34.597 82.6356 35.1674C82.466 35.7377 82.2965 36.281 82.1269 36.7974C81.9574 37.3137 81.7878 37.7993 81.6183 38.254C81.4487 38.7087 81.283 39.1133 81.1212 39.4678H79.9882C79.7879 38.8975 79.5798 38.2925 79.364 37.6528C79.1559 37.0055 78.9632 36.3427 78.786 35.6645ZM83.0952 36.4737C83.0952 35.9419 83.1722 35.4756 83.3264 35.0749C83.4882 34.6741 83.7002 34.3427 83.9622 34.0807C84.2242 33.8109 84.5248 33.6106 84.8639 33.4795C85.203 33.3408 85.5498 33.2714 85.9043 33.2714C86.7367 33.2714 87.3841 33.5296 87.8465 34.046C88.3166 34.5624 88.5517 35.3331 88.5517 36.3581C88.5517 36.4352 88.5478 36.5238 88.5401 36.624C88.5401 36.7165 88.5363 36.8012 88.5286 36.8783H84.5402C84.5788 37.3638 84.7483 37.7415 85.0489 38.0112C85.3572 38.2733 85.8003 38.4043 86.3783 38.4043C86.7174 38.4043 87.0257 38.3734 87.3032 38.3118C87.5883 38.2501 87.8118 38.1846 87.9737 38.1153L88.1586 39.2597C88.0816 39.2983 87.9737 39.3407 87.8349 39.3869C87.7039 39.4254 87.5498 39.4601 87.3725 39.491C87.203 39.5295 87.018 39.5603 86.8176 39.5834C86.6172 39.6066 86.413 39.6181 86.2049 39.6181C85.6731 39.6181 85.2107 39.5411 84.8177 39.3869C84.4246 39.2251 84.1009 39.0054 83.8466 38.728C83.5923 38.4428 83.4034 38.1114 83.2801 37.7338C83.1568 37.3484 83.0952 36.9284 83.0952 36.4737ZM87.1529 35.8494C87.1529 35.6567 87.1259 35.4756 87.0719 35.3061C87.018 35.1288 86.9371 34.9785 86.8292 34.8552C86.729 34.7242 86.6018 34.624 86.4477 34.5547C86.3013 34.4776 86.124 34.4391 85.9159 34.4391C85.7001 34.4391 85.5113 34.4814 85.3494 34.5662C85.1876 34.6433 85.0489 34.7473 84.9333 34.8783C84.8254 35.0094 84.7406 35.1597 84.6789 35.3292C84.6173 35.4988 84.5749 35.6722 84.5518 35.8494H87.1529ZM92.7108 34.6818C92.5952 34.6433 92.4333 34.6047 92.2252 34.5662C92.0249 34.52 91.7898 34.4969 91.5201 34.4969C91.3659 34.4969 91.2002 34.5123 91.023 34.5431C90.8534 34.5739 90.7339 34.6009 90.6646 34.624V39.4678H89.2658V33.7107C89.5355 33.6106 89.8708 33.5181 90.2715 33.4333C90.68 33.3408 91.1309 33.2946 91.6241 33.2946C91.7166 33.2946 91.8245 33.3023 91.9478 33.3177C92.0711 33.3254 92.1944 33.3408 92.3177 33.3639C92.441 33.3793 92.5605 33.4025 92.6761 33.4333C92.7917 33.4564 92.8842 33.4795 92.9535 33.5027L92.7108 34.6818ZM92.8241 36.4737C92.8241 35.9419 92.9012 35.4756 93.0553 35.0749C93.2171 34.6741 93.4291 34.3427 93.6911 34.0807C93.9532 33.8109 94.2537 33.6106 94.5928 33.4795C94.9319 33.3408 95.2788 33.2714 95.6333 33.2714C96.4656 33.2714 97.113 33.5296 97.5754 34.046C98.0455 34.5624 98.2806 35.3331 98.2806 36.3581C98.2806 36.4352 98.2768 36.5238 98.269 36.624C98.269 36.7165 98.2652 36.8012 98.2575 36.8783H94.2691C94.3077 37.3638 94.4772 37.7415 94.7778 38.0112C95.0861 38.2733 95.5292 38.4043 96.1072 38.4043C96.4464 38.4043 96.7546 38.3734 97.0321 38.3118C97.3172 38.2501 97.5407 38.1846 97.7026 38.1153L97.8876 39.2597C97.8105 39.2983 97.7026 39.3407 97.5639 39.3869C97.4328 39.4254 97.2787 39.4601 97.1014 39.491C96.9319 39.5295 96.7469 39.5603 96.5465 39.5834C96.3462 39.6066 96.1419 39.6181 95.9338 39.6181C95.4021 39.6181 94.9396 39.5411 94.5466 39.3869C94.1535 39.2251 93.8298 39.0054 93.5755 38.728C93.3212 38.4428 93.1324 38.1114 93.0091 37.7338C92.8857 37.3484 92.8241 36.9284 92.8241 36.4737ZM96.8818 35.8494C96.8818 35.6567 96.8548 35.4756 96.8009 35.3061C96.7469 35.1288 96.666 34.9785 96.5581 34.8552C96.4579 34.7242 96.3307 34.624 96.1766 34.5547C96.0302 34.4776 95.8529 34.4391 95.6448 34.4391C95.429 34.4391 95.2402 34.4814 95.0784 34.5662C94.9165 34.6433 94.7778 34.7473 94.6622 34.8783C94.5543 35.0094 94.4695 35.1597 94.4079 35.3292C94.3462 35.4988 94.3038 35.6722 94.2807 35.8494H96.8818ZM100.093 36.4274C100.093 37.044 100.239 37.5295 100.532 37.8841C100.825 38.2309 101.23 38.4043 101.746 38.4043C101.97 38.4043 102.158 38.3966 102.313 38.3812C102.474 38.358 102.605 38.3349 102.706 38.3118V34.8437C102.582 34.7589 102.417 34.6818 102.208 34.6125C102.008 34.5354 101.792 34.4969 101.561 34.4969C101.052 34.4969 100.679 34.6703 100.44 35.0171C100.209 35.3639 100.093 35.834 100.093 36.4274ZM104.104 39.2829C103.827 39.3676 103.476 39.4447 103.052 39.5141C102.636 39.5834 102.197 39.6181 101.735 39.6181C101.257 39.6181 100.829 39.5449 100.451 39.3985C100.074 39.252 99.75 39.044 99.4802 38.7742C99.2182 38.4968 99.014 38.1654 98.8675 37.78C98.7288 37.387 98.6594 36.9477 98.6594 36.4621C98.6594 35.9843 98.7172 35.5527 98.8329 35.1674C98.9562 34.7743 99.1334 34.4391 99.3646 34.1616C99.5958 33.8842 99.8771 33.6722 100.209 33.5258C100.54 33.3716 100.921 33.2946 101.353 33.2946C101.646 33.2946 101.904 33.3292 102.128 33.3986C102.351 33.468 102.544 33.545 102.706 33.6298V30.7282L104.104 30.4969V39.2829ZM111.053 36.4274C111.053 35.834 110.934 35.3639 110.695 35.0171C110.463 34.6703 110.093 34.4969 109.585 34.4969C109.354 34.4969 109.134 34.5315 108.926 34.6009C108.725 34.6703 108.564 34.7473 108.44 34.8321V38.3118C108.54 38.3349 108.668 38.358 108.822 38.3812C108.984 38.3966 109.176 38.4043 109.4 38.4043C109.916 38.4043 110.321 38.2309 110.614 37.8841C110.907 37.5295 111.053 37.044 111.053 36.4274ZM112.486 36.4506C112.486 36.9361 112.413 37.3754 112.267 37.7685C112.128 38.1538 111.924 38.4852 111.654 38.7626C111.392 39.0401 111.072 39.252 110.695 39.3985C110.317 39.5449 109.889 39.6181 109.411 39.6181C108.949 39.6181 108.506 39.5834 108.082 39.5141C107.666 39.4447 107.319 39.3676 107.041 39.2829V30.7282L108.44 30.4969V33.6298C108.602 33.545 108.799 33.468 109.03 33.3986C109.269 33.3292 109.531 33.2946 109.816 33.2946C110.24 33.2946 110.618 33.3716 110.949 33.5258C111.288 33.6722 111.569 33.8842 111.793 34.1616C112.016 34.4391 112.186 34.7743 112.301 35.1674C112.425 35.5527 112.486 35.9804 112.486 36.4506ZM117.971 33.4217C117.347 35.7184 116.622 37.7993 115.798 39.6644C115.644 40.0112 115.486 40.3079 115.324 40.5545C115.162 40.8011 114.981 41.0054 114.781 41.1672C114.58 41.3291 114.357 41.4447 114.11 41.514C113.863 41.5911 113.578 41.6296 113.255 41.6296C113.039 41.6296 112.823 41.6065 112.607 41.5603C112.399 41.514 112.241 41.4639 112.133 41.41L112.388 40.2886C112.665 40.3965 112.939 40.4505 113.208 40.4505C113.571 40.4505 113.852 40.3618 114.052 40.1846C114.26 40.015 114.441 39.7491 114.596 39.3869C114.156 38.5391 113.732 37.6143 113.324 36.6124C112.923 35.6105 112.565 34.5469 112.249 33.4217H113.74C113.817 33.7454 113.91 34.0961 114.018 34.4737C114.133 34.8514 114.256 35.2367 114.387 35.6298C114.518 36.0151 114.657 36.4005 114.804 36.7858C114.95 37.1712 115.097 37.5295 115.243 37.8609C115.49 37.175 115.721 36.4467 115.937 35.676C116.152 34.8976 116.349 34.1462 116.526 33.4217H117.971ZM125.195 31.4565H126.652V39.4678H125.195V35.9188H121.716V39.4678H120.259V31.4565H121.716V34.6587H125.195V31.4565ZM130.007 31.3755C131.163 31.3755 132.046 31.5875 132.655 32.0114C133.271 32.4352 133.579 33.0826 133.579 33.9535C133.579 35.0402 133.044 35.7762 131.973 36.1616C132.119 36.3388 132.285 36.5546 132.47 36.8089C132.655 37.0633 132.843 37.3407 133.036 37.6413C133.229 37.9342 133.414 38.2386 133.591 38.5546C133.768 38.8628 133.926 39.1673 134.065 39.4678H132.435C132.289 39.1904 132.131 38.9129 131.961 38.6355C131.791 38.3503 131.618 38.0767 131.441 37.8147C131.271 37.545 131.102 37.2945 130.932 37.0633C130.763 36.8244 130.605 36.6124 130.458 36.4274C130.35 36.4352 130.258 36.439 130.181 36.439C130.104 36.439 130.03 36.439 129.961 36.439H129.256V39.4678H127.799V31.5721C128.154 31.495 128.531 31.4449 128.932 31.4218C129.333 31.391 129.691 31.3755 130.007 31.3755ZM130.111 32.6356C129.803 32.6356 129.518 32.6472 129.256 32.6703V35.2598H129.892C130.246 35.2598 130.558 35.2406 130.828 35.202C131.098 35.1635 131.321 35.0941 131.499 34.994C131.684 34.8938 131.822 34.7589 131.915 34.5893C132.007 34.4198 132.053 34.204 132.053 33.942C132.053 33.6953 132.007 33.4872 131.915 33.3177C131.822 33.1481 131.687 33.0133 131.51 32.9131C131.341 32.8129 131.136 32.7435 130.897 32.705C130.659 32.6587 130.397 32.6356 130.111 32.6356ZM140.296 36.4737C140.296 35.8494 140.154 35.3639 139.868 35.0171C139.591 34.6703 139.14 34.4969 138.516 34.4969C138.385 34.4969 138.246 34.5046 138.1 34.52C137.961 34.5277 137.822 34.5508 137.684 34.5893V38.0459C137.807 38.1307 137.969 38.2116 138.169 38.2887C138.377 38.358 138.597 38.3927 138.828 38.3927C139.337 38.3927 139.707 38.2193 139.938 37.8725C140.177 37.5257 140.296 37.0594 140.296 36.4737ZM141.73 36.4506C141.73 36.913 141.668 37.3369 141.545 37.7222C141.429 38.1076 141.26 38.439 141.036 38.7164C140.813 38.9939 140.531 39.2097 140.192 39.3638C139.861 39.5179 139.483 39.595 139.059 39.595C138.774 39.595 138.512 39.5603 138.273 39.491C138.034 39.4216 137.838 39.3445 137.684 39.2597V41.6065H136.285V33.6183C136.57 33.5412 136.921 33.468 137.337 33.3986C137.753 33.3292 138.192 33.2946 138.655 33.2946C139.132 33.2946 139.56 33.3678 139.938 33.5142C140.315 33.6606 140.635 33.8726 140.897 34.15C141.167 34.4198 141.371 34.7512 141.51 35.1442C141.656 35.5296 141.73 35.965 141.73 36.4506ZM144.529 38.4852C144.961 38.4852 145.289 38.4621 145.512 38.4158V36.8667C145.435 36.8436 145.323 36.8205 145.177 36.7974C145.03 36.7743 144.869 36.7627 144.691 36.7627C144.537 36.7627 144.379 36.7743 144.217 36.7974C144.063 36.8205 143.921 36.8629 143.79 36.9245C143.666 36.9862 143.566 37.0748 143.489 37.1904C143.412 37.2983 143.373 37.4371 143.373 37.6066C143.373 37.938 143.477 38.1692 143.686 38.3002C143.894 38.4235 144.175 38.4852 144.529 38.4852ZM144.414 33.2714C144.876 33.2714 145.265 33.3293 145.581 33.4449C145.897 33.5605 146.148 33.7223 146.333 33.9304C146.526 34.1385 146.66 34.3928 146.737 34.6934C146.822 34.9862 146.865 35.3099 146.865 35.6645V39.3291C146.649 39.3754 146.321 39.4293 145.882 39.491C145.45 39.5603 144.961 39.595 144.414 39.595C144.052 39.595 143.72 39.5603 143.42 39.491C143.119 39.4216 142.861 39.3098 142.645 39.1557C142.437 39.0016 142.271 38.8012 142.148 38.5546C142.032 38.3079 141.975 38.0035 141.975 37.6413C141.975 37.2945 142.04 37.0016 142.171 36.7627C142.31 36.5238 142.495 36.3311 142.726 36.1847C142.957 36.0305 143.223 35.9226 143.524 35.861C143.832 35.7916 144.152 35.7569 144.483 35.7569C144.637 35.7569 144.799 35.7685 144.969 35.7916C145.138 35.807 145.319 35.8379 145.512 35.8841V35.6529C145.512 35.491 145.493 35.3369 145.454 35.1905C145.416 35.044 145.346 34.9169 145.246 34.809C145.154 34.6934 145.027 34.6048 144.865 34.5431C144.711 34.4814 144.514 34.4506 144.275 34.4506C143.951 34.4506 143.655 34.4737 143.385 34.52C143.115 34.5662 142.896 34.6202 142.726 34.6818L142.553 33.5489C142.73 33.4872 142.988 33.4256 143.327 33.3639C143.666 33.3023 144.028 33.2714 144.414 33.2714ZM151.82 36.4737C151.82 35.8494 151.678 35.3639 151.392 35.0171C151.115 34.6703 150.664 34.4969 150.04 34.4969C149.909 34.4969 149.77 34.5046 149.624 34.52C149.485 34.5277 149.346 34.5508 149.207 34.5893V38.0459C149.331 38.1307 149.493 38.2116 149.693 38.2887C149.901 38.358 150.121 38.3927 150.352 38.3927C150.861 38.3927 151.231 38.2193 151.462 37.8725C151.701 37.5257 151.82 37.0594 151.82 36.4737ZM153.254 36.4506C153.254 36.913 153.192 37.3369 153.069 37.7222C152.953 38.1076 152.783 38.439 152.56 38.7164C152.336 38.9939 152.055 39.2097 151.716 39.3638C151.385 39.5179 151.007 39.595 150.583 39.595C150.298 39.595 150.036 39.5603 149.797 39.491C149.558 39.4216 149.362 39.3445 149.207 39.2597V41.6065H147.809V33.6183C148.094 33.5412 148.444 33.468 148.861 33.3986C149.277 33.3292 149.716 33.2946 150.179 33.2946C150.656 33.2946 151.084 33.3678 151.462 33.5142C151.839 33.6606 152.159 33.8726 152.421 34.15C152.691 34.4198 152.895 34.7512 153.034 35.1442C153.18 35.5296 153.254 35.965 153.254 36.4506ZM153.591 36.4737C153.591 35.9419 153.668 35.4756 153.822 35.0749C153.984 34.6741 154.196 34.3427 154.458 34.0807C154.72 33.8109 155.021 33.6106 155.36 33.4795C155.699 33.3408 156.046 33.2714 156.4 33.2714C157.233 33.2714 157.88 33.5296 158.342 34.046C158.812 34.5624 159.048 35.3331 159.048 36.3581C159.048 36.4352 159.044 36.5238 159.036 36.624C159.036 36.7165 159.032 36.8012 159.024 36.8783H155.036C155.075 37.3638 155.244 37.7415 155.545 38.0112C155.853 38.2733 156.296 38.4043 156.874 38.4043C157.213 38.4043 157.522 38.3734 157.799 38.3118C158.084 38.2501 158.308 38.1846 158.47 38.1153L158.654 39.2597C158.577 39.2983 158.47 39.3407 158.331 39.3869C158.2 39.4254 158.046 39.4601 157.868 39.491C157.699 39.5295 157.514 39.5603 157.313 39.5834C157.113 39.6066 156.909 39.6181 156.701 39.6181C156.169 39.6181 155.707 39.5411 155.314 39.3869C154.92 39.2251 154.597 39.0054 154.342 38.728C154.088 38.4428 153.899 38.1114 153.776 37.7338C153.653 37.3484 153.591 36.9284 153.591 36.4737ZM157.649 35.8494C157.649 35.6567 157.622 35.4756 157.568 35.3061C157.514 35.1288 157.433 34.9785 157.325 34.8552C157.225 34.7242 157.098 34.624 156.944 34.5547C156.797 34.4776 156.62 34.4391 156.412 34.4391C156.196 34.4391 156.007 34.4814 155.845 34.5662C155.683 34.6433 155.545 34.7473 155.429 34.8783C155.321 35.0094 155.236 35.1597 155.175 35.3292C155.113 35.4988 155.071 35.6722 155.048 35.8494H157.649ZM163.207 34.6818C163.091 34.6433 162.929 34.6047 162.721 34.5662C162.521 34.52 162.286 34.4969 162.016 34.4969C161.862 34.4969 161.696 34.5123 161.519 34.5431C161.349 34.5739 161.23 34.6009 161.16 34.624V39.4678H159.762V33.7107C160.031 33.6106 160.367 33.5181 160.767 33.4333C161.176 33.3408 161.627 33.2946 162.12 33.2946C162.212 33.2946 162.32 33.3023 162.444 33.3177C162.567 33.3254 162.69 33.3408 162.814 33.3639C162.937 33.3793 163.056 33.4025 163.172 33.4333C163.288 33.4564 163.38 33.4795 163.449 33.5027L163.207 34.6818ZM169.191 35.6645C169.014 36.3427 168.821 37.0055 168.613 37.6528C168.413 38.2925 168.212 38.8975 168.012 39.4678H166.868C166.713 39.1133 166.552 38.7087 166.382 38.254C166.212 37.7993 166.043 37.3137 165.873 36.7974C165.704 36.281 165.534 35.7377 165.365 35.1674C165.195 34.597 165.029 34.0152 164.868 33.4217H166.347C166.417 33.7454 166.498 34.0961 166.59 34.4737C166.683 34.8437 166.779 35.2252 166.879 35.6182C166.979 36.0036 167.083 36.3812 167.191 36.7511C167.299 37.1211 167.407 37.4602 167.515 37.7685C167.631 37.4139 167.742 37.0479 167.85 36.6702C167.966 36.2926 168.074 35.9149 168.174 35.5373C168.274 35.1597 168.367 34.7936 168.451 34.4391C168.544 34.0768 168.625 33.7377 168.694 33.4217H169.769C169.839 33.7377 169.916 34.0768 170 34.4391C170.085 34.7936 170.174 35.1597 170.266 35.5373C170.367 35.9149 170.471 36.2926 170.578 36.6702C170.694 37.0479 170.81 37.4139 170.925 37.7685C171.025 37.4602 171.13 37.1211 171.237 36.7511C171.345 36.3812 171.449 36.0036 171.55 35.6182C171.657 35.2252 171.758 34.8437 171.85 34.4737C171.943 34.0961 172.024 33.7454 172.093 33.4217H173.538C173.376 34.0152 173.21 34.597 173.041 35.1674C172.871 35.7377 172.702 36.281 172.532 36.7974C172.363 37.3137 172.193 37.7993 172.024 38.254C171.854 38.7087 171.688 39.1133 171.526 39.4678H170.394C170.193 38.8975 169.985 38.2925 169.769 37.6528C169.561 37.0055 169.368 36.3427 169.191 35.6645ZM179.191 36.439C179.191 36.9168 179.122 37.3523 178.983 37.7453C178.844 38.1384 178.648 38.4736 178.393 38.7511C178.139 39.0285 177.831 39.2443 177.468 39.3985C177.114 39.5526 176.721 39.6297 176.289 39.6297C175.858 39.6297 175.465 39.5526 175.11 39.3985C174.756 39.2443 174.451 39.0285 174.197 38.7511C173.942 38.4736 173.742 38.1384 173.596 37.7453C173.457 37.3523 173.388 36.9168 173.388 36.439C173.388 35.9612 173.457 35.5296 173.596 35.1442C173.742 34.7512 173.942 34.4159 174.197 34.1385C174.459 33.861 174.767 33.6491 175.122 33.5027C175.476 33.3485 175.865 33.2714 176.289 33.2714C176.713 33.2714 177.102 33.3485 177.457 33.5027C177.819 33.6491 178.127 33.861 178.382 34.1385C178.636 34.4159 178.833 34.7512 178.971 35.1442C179.118 35.5296 179.191 35.9612 179.191 36.439ZM177.757 36.439C177.757 35.8379 177.626 35.3639 177.364 35.0171C177.11 34.6626 176.752 34.4853 176.289 34.4853C175.827 34.4853 175.465 34.6626 175.203 35.0171C174.948 35.3639 174.821 35.8379 174.821 36.439C174.821 37.0479 174.948 37.5295 175.203 37.8841C175.465 38.2386 175.827 38.4158 176.289 38.4158C176.752 38.4158 177.11 38.2386 177.364 37.8841C177.626 37.5295 177.757 37.0479 177.757 36.439ZM183.308 34.6818C183.192 34.6433 183.031 34.6047 182.822 34.5662C182.622 34.52 182.387 34.4969 182.117 34.4969C181.963 34.4969 181.797 34.5123 181.62 34.5431C181.451 34.5739 181.331 34.6009 181.262 34.624V39.4678H179.863V33.7107C180.133 33.6106 180.468 33.5181 180.869 33.4333C181.277 33.3408 181.728 33.2946 182.221 33.2946C182.314 33.2946 182.422 33.3023 182.545 33.3177C182.668 33.3254 182.792 33.3408 182.915 33.3639C183.038 33.3793 183.158 33.4025 183.273 33.4333C183.389 33.4564 183.481 33.4795 183.551 33.5027L183.308 34.6818ZM185.155 35.7801C185.333 35.5951 185.521 35.3986 185.722 35.1905C185.922 34.9747 186.119 34.7627 186.311 34.5547C186.504 34.3389 186.685 34.1346 186.855 33.942C187.032 33.7416 187.182 33.5682 187.306 33.4217H188.959C188.573 33.8533 188.165 34.3003 187.733 34.7627C187.309 35.2252 186.882 35.676 186.45 36.1153C186.681 36.308 186.924 36.543 187.178 36.8205C187.433 37.0902 187.679 37.3793 187.918 37.6875C188.157 37.9958 188.381 38.3041 188.589 38.6124C188.797 38.9206 188.97 39.2058 189.109 39.4678H187.491C187.352 39.2289 187.19 38.9784 187.005 38.7164C186.828 38.4544 186.635 38.2 186.427 37.9534C186.219 37.7068 186.007 37.4756 185.791 37.2598C185.575 37.0363 185.363 36.8475 185.155 36.6933V39.4678H183.757V30.7282L185.155 30.4969V35.7801Z" fill="#FDFDFD"/>
<defs>
<radialGradient id="paint0_radial_0_4412" cx="0" cy="0" r="1" gradientUnits="userSpaceOnUse" gradientTransform="translate(-16.1073 37.7052) scale(64.7898 61.8709)">
<stop stop-color="white"/>
<stop offset="0.3" stop-color="white"/>
<stop offset="1" stop-color="white"/>
</radialGradient>
<radialGradient id="paint1_radial_0_4412" cx="0" cy="0" r="1" gradientUnits="userSpaceOnUse" gradientTransform="translate(7.15189 18.7753) scale(26.4193 25.2291)">
<stop stop-color="white"/>
<stop offset="0.3" stop-color="white"/>
<stop offset="1" stop-color="white"/>
</radialGradient>
<radialGradient id="paint2_radial_0_4412" cx="0" cy="0" r="1" gradientUnits="userSpaceOnUse" gradientTransform="translate(7.15189 30.3868) scale(26.4193 25.2291)">
<stop stop-color="white"/>
<stop offset="0.3" stop-color="white"/>
<stop offset="1" stop-color="white"/>
</radialGradient>
<clipPath id="clip0_0_4412">
<rect x="0.58252" y="0.872345" width="45.4116" height="43.3657" rx="3.05166" fill="white"/>
</clipPath>
</defs>
</svg>
