<svg width="31" height="31" viewBox="0 0 31 31" fill="none" xmlns="http://www.w3.org/2000/svg">
<g clip-path="url(#clip0_139_4192)">
<path d="M0 0.0270996V30.7069H30.6798V0.0270996H0ZM25.6177 25.5681H5.13887V5.16597H25.6944L25.6177 25.5681Z" fill="url(#paint0_radial_139_4192)"/>
<path d="M21.6295 9.30774H11.4285L9.05078 13.3728H19.2518L21.6295 9.30774Z" fill="url(#paint1_radial_139_4192)"/>
<path d="M21.6295 17.4379H11.4285L9.05078 21.503H19.2518L21.6295 17.4379Z" fill="url(#paint2_radial_139_4192)"/>
</g>
<defs>
<radialGradient id="paint0_radial_139_4192" cx="0" cy="0" r="1" gradientUnits="userSpaceOnUse" gradientTransform="translate(-11.2755 26.0854) scale(43.7717)">
<stop stop-color="white"/>
<stop offset="0.3" stop-color="white"/>
<stop offset="1" stop-color="white"/>
</radialGradient>
<radialGradient id="paint1_radial_139_4192" cx="0" cy="0" r="1" gradientUnits="userSpaceOnUse" gradientTransform="translate(4.43676 12.693) scale(17.8488)">
<stop stop-color="white"/>
<stop offset="0.3" stop-color="white"/>
<stop offset="1" stop-color="white"/>
</radialGradient>
<radialGradient id="paint2_radial_139_4192" cx="0" cy="0" r="1" gradientUnits="userSpaceOnUse" gradientTransform="translate(4.43676 20.9081) scale(17.8488)">
<stop stop-color="white"/>
<stop offset="0.3" stop-color="white"/>
<stop offset="1" stop-color="white"/>
</radialGradient>
<clipPath id="clip0_139_4192">
<path d="M0 4.39046C0 1.98065 1.95354 0.0270996 4.36336 0.0270996H26.3165C28.7263 0.0270996 30.6798 1.98064 30.6798 4.39046V26.3436C30.6798 28.7534 28.7263 30.7069 26.3165 30.7069H4.36336C1.95355 30.7069 0 28.7534 0 26.3436V4.39046Z" fill="white"/>
</clipPath>
</defs>
</svg>
